<?xml version="1.0" encoding="iso-8859-1"?>
<!-- Generator: Adobe Illustrator 19.0.0, SVG Export Plug-In . SVG Version: 6.00 Build 0)  -->
<svg version="1.1" id="Capa_1" xmlns="http://www.w3.org/2000/svg" xmlns:xlink="http://www.w3.org/1999/xlink" x="0px" y="0px"
	 viewBox="0 0 330.8 330.8" style="enable-background:new 0 0 330.8 330.8;" xml:space="preserve">
<g>
	<rect x="55.8" y="196" style="fill:#EFBF1D;" width="59.2" height="128.8"/>
	<rect x="136.2" y="134" style="fill:#EFBF1D;" width="59.2" height="190.8"/>
	<rect x="216.2" y="77.6" style="fill:#EFBF1D;" width="59.2" height="247.2"/>
</g>
<g>
	<rect x="55.8" y="196" style="fill:#F4D32F;" width="18.8" height="128.8"/>
	<rect x="136.2" y="134" style="fill:#F4D32F;" width="18.8" height="190.8"/>
	<rect x="216.2" y="77.6" style="fill:#F4D32F;" width="18.8" height="247.2"/>
</g>
<g>
	<polygon style="fill:#382E22;" points="59,161.6 263.8,25.6 253.4,61.2 264.6,64.4 278.6,16 279,15.6 278.6,15.6 281,7.2 
		272.6,6.4 272.6,6 272.2,6.4 219,0 217.8,11.2 257.4,16 52.6,152 	"/>
	<path style="fill:#382E22;" d="M281.4,318.8V71.6h-70.8v247.2h-9.2V128h-71.2v190.8h-9.6V190.4H50.2v128.8H21.8v11.6h28.4H121h9.6
		h70.8h9.6h70.4H309v-11.6h-27.6V318.8z M61.4,318.8V202h48v117.2h-48V318.8z M141.8,318.8V139.6h47.6v179.2H141.8L141.8,318.8z
		 M222.2,318.8v-236h47.6v236H222.2z"/>
</g>
<g>
</g>
<g>
</g>
<g>
</g>
<g>
</g>
<g>
</g>
<g>
</g>
<g>
</g>
<g>
</g>
<g>
</g>
<g>
</g>
<g>
</g>
<g>
</g>
<g>
</g>
<g>
</g>
<g>
</g>
</svg>
